HIERARCHY
ROOT Hips
{
	OFFSET 0.000000 0.000000 0.000000
	CHANNELS 6 Xposition Yposition Zposition Xrotation Yrotation Zrotation
	JOINT LeftUpLeg_virtual
	{
		OFFSET 0.000000 0.000000 0.000000
		CHANNELS 3 Xrotation Yrotation Zrotation
		JOINT LeftUpLeg
		{
			OFFSET 15.427100 -6.655098 0.678600
			CHANNELS 3 Xrotation Yrotation Zrotation
			JOINT LeftLeg
			{
				OFFSET 4.081073 -39.591068 13.024000
				CHANNELS 3 Xrotation Yrotation Zrotation
				JOINT LeftFoot
				{
					OFFSET -4.081074 -37.707932 -15.979700
					CHANNELS 3 Xrotation Yrotation Zrotation
					JOINT LeftToeBase
					{
						OFFSET 5.346399 -15.068900 20.645000
						CHANNELS 3 Xrotation Yrotation Zrotation
						JOINT LeftToe_End
						{
							OFFSET 2.754700 0.931300 11.300900
							CHANNELS 3 Xrotation Yrotation Zrotation
							End Site
							{
								OFFSET 0 0 0
							}
						}
					}
				}
			}
		}
	}
	JOINT RightUpLeg_virtual
	{
		OFFSET 0.000000 0.000000 0.000000
		CHANNELS 3 Xrotation Yrotation Zrotation
		JOINT RightUpLeg
		{
			OFFSET -15.569500 -6.655098 0.678600
			CHANNELS 3 Xrotation Yrotation Zrotation
			JOINT RightLeg
			{
				OFFSET -4.081825 -39.591045 13.023800
				CHANNELS 3 Xrotation Yrotation Zrotation
				JOINT RightFoot
				{
					OFFSET 4.081824 -37.707954 -15.979600
					CHANNELS 3 Xrotation Yrotation Zrotation
					JOINT RightToeBase
					{
						OFFSET -5.346400 -15.068900 20.645000
						CHANNELS 3 Xrotation Yrotation Zrotation
						JOINT RightToe_End
						{
							OFFSET -2.754700 0.931300 11.300900
							CHANNELS 3 Xrotation Yrotation Zrotation
							End Site
							{
								OFFSET 0 0 0
							}
						}
					}
				}
			}
		}
	}
	JOINT Spine_virtual
	{
		OFFSET 0.000000 0.000000 0.000000
		CHANNELS 3 Xrotation Yrotation Zrotation
		JOINT Spine
		{
			OFFSET -0.279200 12.230698 -2.892100
			CHANNELS 3 Xrotation Yrotation Zrotation
			JOINT Spine1
			{
				OFFSET -0.232667 10.192268 -1.242267
				CHANNELS 3 Xrotation Yrotation Zrotation
				JOINT Spine1_split
				{
					OFFSET -0.232667 10.192268 -1.242267
					CHANNELS 3 Xrotation Yrotation Zrotation
					JOINT Spine2
					{
						OFFSET -0.232667 10.192268 -1.242267
						CHANNELS 3 Xrotation Yrotation Zrotation
						JOINT Neck_virtual
						{
							OFFSET 0.000000 0.000000 0.000000
							CHANNELS 3 Xrotation Yrotation Zrotation
							JOINT Neck
							{
								OFFSET -0.418800 17.814194 8.416900
								CHANNELS 3 Xrotation Yrotation Zrotation
								JOINT Head
								{
									OFFSET 0.000000 7.031097 3.806800
									CHANNELS 3 Xrotation Yrotation Zrotation
									JOINT HeadTop_End
									{
										OFFSET 0.000000 24.646606 12.978600
										CHANNELS 3 Xrotation Yrotation Zrotation
										End Site
										{
											OFFSET 0 0 0
										}
									}
								}
							}
						}
						JOINT LeftShoulder_virtual
						{
							OFFSET 0.000000 0.000000 0.000000
							CHANNELS 3 Xrotation Yrotation Zrotation
							JOINT LeftShoulder
							{
								OFFSET 8.476499 7.247704 -3.868750
								CHANNELS 3 Xrotation Yrotation Zrotation
								JOINT LeftShoulder_split
								{
									OFFSET 8.476499 7.247704 -3.868750
									CHANNELS 3 Xrotation Yrotation Zrotation
									JOINT LeftArm
									{
										OFFSET 9.308998 -2.777710 0.208600
										CHANNELS 3 Xrotation Yrotation Zrotation
										JOINT LeftForeArm
										{
											OFFSET 29.972298 0.000000 0.000000
											CHANNELS 3 Xrotation Yrotation Zrotation
											JOINT LeftHand
											{
												OFFSET 26.026505 0.000000 0.000000
												CHANNELS 3 Xrotation Yrotation Zrotation
												End Site
												{
													OFFSET 0 0 0
												}
											}
										}
									}
								}
							}
						}
						JOINT RightShoulder_virtual
						{
							OFFSET 0.000000 0.000000 0.000000
							CHANNELS 3 Xrotation Yrotation Zrotation
							JOINT RightShoulder
							{
								OFFSET -7.570500 7.247704 -3.868750
								CHANNELS 3 Xrotation Yrotation Zrotation
								JOINT RightShoulder_split
								{
									OFFSET -7.570500 7.247704 -3.868750
									CHANNELS 3 Xrotation Yrotation Zrotation
									JOINT RightArm
									{
										OFFSET -9.308998 -2.777710 0.208500
										CHANNELS 3 Xrotation Yrotation Zrotation
										JOINT RightForeArm
										{
											OFFSET -29.972300 0.000000 0.000000
											CHANNELS 3 Xrotation Yrotation Zrotation
											JOINT RightHand
											{
												OFFSET -26.026505 0.000000 0.000000
												CHANNELS 3 Xrotation Yrotation Zrotation
												End Site
												{
													OFFSET 0 0 0
												}
											}
										}
									}
								}
							}
						}
					}
				}
			}
		}
	}
}
MOTION
Frames: 8
Frame Time: 0.03333333
1.562055 96.416977 -8.031717 0.000000 0.000000 0.000000 -7.934662 -5.747671 9.340049 11.684547 22.151663 -11.950576 2.362648 1.779965 2.592819 -8.555326 1.375910 1.543537 5.783749 -2.066622 -2.147093 0.000000 0.000000 0.000000 -8.084505 -5.352336 9.133750 -3.540503 -9.212476 -18.778260 19.937811 9.511055 -1.050944 -9.360411 -16.335195 27.774329 0.208794 6.228798 -23.182630 0.000000 0.000000 0.000000 -10.448820 -3.902944 8.588107 -1.087423 -2.514352 -0.332829 7.839319 3.054453 -0.798194 0.173211 -0.136484 0.104901 0.000000 0.000000 0.000000 10.691925 4.197707 -0.419751 -0.434375 -6.683367 -0.211015 -32.558139 -42.631100 -28.981893 0.000000 0.000000 0.000000 6.622916 3.073975 -1.692442 -0.883227 -32.352584 -3.954442 6.212994 5.901139 -5.401904 13.033119 6.376386 -56.587431 -2.687083 -37.347433 -11.502665 0.000000 0.000000 0.000000 6.773605 3.550248 1.296112 -5.403655 3.863071 6.979626 -4.162192 -1.715101 0.743598 8.276080 9.406091 51.065943 0.963022 14.569342 21.975126 0.000000 0.000000 0.000000 
1.172232 96.793144 -7.202032 0.000000 0.000000 0.000000 -7.975270 -4.954744 9.236049 10.640624 21.472679 -11.388341 2.042404 1.993403 2.480021 -6.314499 1.544742 1.714648 5.261032 -1.961148 -2.330540 0.000000 0.000000 0.000000 -8.204590 -4.738182 9.101405 -2.598945 -9.809628 -18.984207 17.942193 9.289178 -1.137122 -8.177731 -15.252822 29.664273 -4.356923 6.950755 -23.180055 0.000000 0.000000 0.000000 -10.579475 -3.863919 8.346945 -0.639580 -2.517965 -0.230317 8.319876 2.951329 -0.801706 0.294671 -0.057169 0.195031 0.000000 0.000000 0.000000 11.082539 4.171496 -0.406152 -1.209709 -6.642774 -0.432933 -32.311306 -42.088903 -27.753251 0.000000 0.000000 0.000000 7.191175 2.974152 -1.688338 -0.570036 -32.999827 -3.577433 7.224665 1.712955 -5.377529 17.310025 4.794146 -58.459958 -0.887168 -36.710969 -10.063362 0.000000 0.000000 0.000000 7.147548 3.490972 1.202139 -5.484837 4.656928 5.855612 -1.906268 0.414610 1.103758 9.094762 11.380268 51.386375 0.327787 17.851447 21.827543 0.000000 0.000000 0.000000 
0.771089 97.565552 -6.557165 0.000000 0.000000 0.000000 -8.048648 -4.259177 8.856141 9.527678 20.711830 -10.595045 1.667787 2.396901 2.827579 -3.337160 1.727395 2.023340 2.878885 -1.817078 -2.636984 0.000000 0.000000 0.000000 -8.214672 -4.048754 8.781749 -0.795732 -10.302059 -18.287104 14.885936 8.227222 -1.484024 -8.158500 -14.839332 28.650280 -4.230837 6.601530 -21.623911 0.000000 0.000000 0.000000 -10.527904 -3.575259 7.890770 -0.281793 -2.457121 0.140028 9.276900 2.548401 -0.994666 0.286779 -0.062383 0.186320 0.000000 0.000000 0.000000 12.020870 3.906630 -0.678800 -2.085020 -6.099525 -0.865200 -31.019499 -41.278754 -24.930580 0.000000 0.000000 0.000000 8.593102 2.687786 -1.838013 0.130688 -32.503870 -2.227702 7.236551 -1.014541 -4.513293 23.374980 2.021534 -59.006974 -0.170902 -40.876333 -6.927305 0.000000 0.000000 0.000000 8.446975 3.162195 0.721477 -5.053994 6.008831 3.750094 -0.217524 1.274759 1.175831 12.730499 15.030125 51.939706 0.466246 23.017744 19.025369 0.000000 0.000000 0.000000 
0.454980 98.392441 -6.086329 0.000000 0.000000 0.000000 -8.153420 -3.881632 8.246879 8.217661 20.269888 -9.646918 1.778185 2.775809 3.525568 -0.170269 1.883384 2.061857 -0.175282 -1.602736 -3.084255 0.000000 0.000000 0.000000 -8.143877 -3.678453 8.241363 0.366016 -10.400986 -17.166154 12.669140 6.806587 -1.794447 -7.403884 -14.613888 26.245145 -1.931911 5.812490 -19.058967 0.000000 0.000000 0.000000 -10.545630 -2.964339 7.366950 0.028702 -2.438087 0.640058 10.580392 1.875169 -1.228892 0.160571 -0.146073 0.171812 0.000000 0.000000 0.000000 13.295348 3.370539 -1.089671 -2.773833 -5.068871 -1.550608 -28.561227 -40.041636 -20.920716 0.000000 0.000000 0.000000 10.435488 2.191296 -2.032125 1.110407 -30.892806 -0.057975 6.560739 -2.298690 -4.355022 29.842531 -0.751032 -57.986797 0.373665 -49.398687 -1.511619 0.000000 0.000000 0.000000 10.364810 2.558725 0.070311 -4.242374 7.861715 1.274734 0.843199 0.610797 1.351434 17.245118 18.809405 52.707194 1.950137 29.577946 13.383882 0.000000 0.000000 0.000000 
0.151214 99.113205 -5.740435 0.000000 0.000000 0.000000 -8.230706 -3.800389 7.577785 6.463391 20.071913 -8.604259 2.598174 2.723796 4.392136 3.166431 1.802748 1.157704 -2.740779 -1.341700 -3.461554 0.000000 0.000000 0.000000 -7.948840 -3.784041 7.537160 -0.415360 -9.649870 -16.300919 12.712649 6.047011 -1.805328 -4.575740 -13.630543 25.085473 -3.209936 5.615440 -16.109052 0.000000 0.000000 0.000000 -10.564058 -1.925292 6.888146 0.397337 -2.630113 1.075601 12.015994 1.016038 -1.417134 -0.084463 -0.189537 0.081618 0.000000 0.000000 0.000000 14.686462 2.611422 -1.459618 -3.047943 -3.628507 -2.503304 -25.164481 -38.408012 -16.310579 0.000000 0.000000 0.000000 12.331709 1.517312 -2.184035 2.103826 -28.758201 2.166599 5.534319 -3.323443 -4.867929 36.193097 -2.760605 -55.753174 3.404323 -60.226142 7.822120 0.000000 0.000000 0.000000 12.450381 1.739995 -0.495138 -3.118855 10.383542 -0.699286 1.222275 -0.732139 1.537280 20.705734 22.032437 53.535098 5.539168 37.006392 4.654269 0.000000 0.000000 0.000000 
-0.154318 99.772141 -5.726244 0.000000 0.000000 0.000000 -8.235145 -3.961209 6.898778 4.384386 19.860349 -7.691459 3.938414 2.279207 5.218438 6.277422 1.427839 -0.468361 -4.544568 -1.111018 -3.515078 0.000000 0.000000 0.000000 -7.611173 -3.943273 6.821363 -3.189128 -7.671108 -15.685507 15.502451 6.393220 -1.900390 -0.702348 -11.658929 25.195929 -9.155548 5.846546 -13.054990 0.000000 0.000000 0.000000 -10.434971 -0.711658 6.379841 0.937187 -3.132317 1.304929 13.348723 0.100570 -1.493337 -0.251620 -0.237851 -0.031340 0.000000 0.000000 0.000000 15.846532 1.795740 -1.636317 -2.807144 -1.987295 -3.682408 -20.984313 -36.653356 -11.608830 0.000000 0.000000 0.000000 14.025573 0.765157 -2.183435 2.922910 -26.744729 3.710460 4.252753 -4.490819 -6.460190 42.024655 -3.875804 -52.545567 13.949294 -69.907792 24.938310 0.000000 0.000000 0.000000 14.245484 0.873585 -0.799859 -1.839788 13.569409 -1.500880 1.416152 -1.834497 1.705928 21.300385 23.683309 54.648617 12.174534 44.525003 -7.568808 0.000000 0.000000 0.000000 
-0.481800 100.411354 -6.187479 0.000000 0.000000 0.000000 -8.098862 -4.168897 6.280555 2.173608 19.467243 -6.877576 5.191858 1.540524 5.906687 8.576263 0.868972 -2.260685 -6.011860 -0.993994 -2.812055 0.000000 0.000000 0.000000 -7.104291 -3.892990 6.116763 -7.151842 -4.680331 -14.875445 20.834929 7.260672 -2.158238 1.853956 -9.626335 24.183449 -14.352068 5.572780 -9.781569 0.000000 0.000000 0.000000 -9.868790 0.504936 5.656562 1.662583 -3.893629 1.303974 14.498178 -0.722464 -1.454029 -0.222833 -0.198460 -0.027893 0.000000 0.000000 0.000000 16.593040 1.078821 -1.575087 -1.899298 -0.407980 -4.847766 -16.452809 -34.789029 -7.233966 0.000000 0.000000 0.000000 15.345664 0.050376 -2.039719 3.365523 -25.242147 4.043239 3.766618 -5.978919 -8.334164 45.877609 -4.893723 -48.369371 36.396726 -75.147531 53.253773 0.000000 0.000000 0.000000 15.509958 0.102963 -0.839871 -0.702944 17.052679 -1.059233 2.487435 -1.772991 1.851010 18.781434 23.210991 55.801976 22.895573 51.331430 -23.630720 0.000000 0.000000 0.000000 
-0.928895 100.991974 -6.956419 0.000000 0.000000 0.000000 -7.752409 -4.145217 5.767852 0.305512 18.689573 -6.341059 5.736437 0.964825 6.328510 9.440299 0.473782 -3.361251 -6.028008 -0.997941 -1.896885 0.000000 0.000000 0.000000 -6.552989 -3.315194 5.540109 -11.781539 -1.426809 -13.566962 27.711882 7.778439 -2.445930 1.903162 -8.598735 20.546669 -14.992513 4.703316 -6.400682 0.000000 0.000000 0.000000 -8.601200 1.690060 4.668822 2.400865 -4.740991 1.129354 15.269310 -1.311503 -1.406662 -0.056139 -0.109280 -0.012705 0.000000 0.000000 0.000000 16.912918 0.620649 -1.402386 -0.368545 0.856284 -5.768763 -11.851182 -33.386511 -3.376748 0.000000 0.000000 0.000000 16.339549 -0.451630 -1.824086 3.256237 -24.328987 2.907582 3.773423 -6.388144 -9.304403 46.750528 -5.823383 -42.628454 56.788122 -75.229070 78.278612 0.000000 0.000000 0.000000 16.097468 -0.420179 -0.780547 0.200204 20.280428 0.292020 4.357947 -1.206897 1.562022 14.366888 21.133626 55.946107 38.251040 56.446073 -43.588918 0.000000 0.000000 0.000000 
